<svg id="图层_1" data-name="图层 1" xmlns="http://www.w3.org/2000/svg" viewBox="0 0 1623.36 159.9"><defs><style>.cls-1{fill:#fff;}</style></defs><title>Ares 调度平台 </title><path class="cls-1" d="M545.5,70.6l6.4,11,15-8.8,33.3-19.5.2.1,48.2,28.2,6.4-11-54.7-32Zm-88,12h20.1v5.9H457.5v56.7h12.7V124.6l7,7a48.6,48.6,0,0,0,8.3-11.9l.2-.4,4,4,9-9-8.8-8.8v-.2a23.4,23.4,0,0,0,.3-3.8v-.3h12.6v3.3a31.07,31.07,0,0,1-9.4,22.6l9,9a49.17,49.17,0,0,0,9.7-15l.2-.5,4.1,4.1,6.4-6.4v4.8c0,9.2-9.2,9.3-9.3,9.3H508l2.8,12.7h2.7a26.37,26.37,0,0,0,11-2.8c7.3-3.6,11-10.1,11-19.2V88.5H515.4V82.6h20.1V69.9H457.2V82.6Zm20,19a31.94,31.94,0,0,1-6.7,18.3l-.6.8V101.2h7.4Zm38.1,4.1v-4.4H523v12l-7.4-7.4ZM490.3,82.6h12.6v5.9H490.3Zm134.6,49.2a59,59,0,0,0,13.8-13.2l-7-6.9h15.7V98.9h-41V85.6h26.1V72.8H567.7V85.5h26.1V98.8h-41v12.7h15.9l-7.6,7.6,13.2,13.2h-26V145H651.9V132.3h-28Zm-31.1.6h-15l6.8-6.8-14-14h22.3l-.1,20.8Zm12.7,0V111.6h21.7l-.5.6a74.55,74.55,0,0,1-13.9,11.6l6.8,8.7-14.1-.1ZM520.1,41.6H507.4v6H485.9v-6H473.2v6H457.6V60.3h15.6v6h12.7v-6h21.5v6h12.7v-6h15.6V47.5H520.1ZM452.2,86.1,436.8,70.7l-9,9,15.4,15.4ZM663.1,54.3h54.5V41.6H663.1Zm103.6,58.8V52.7H750.3V41.6H737.6V52.8H721.2v60.4h16.4V130l-16.4,2.3v12.9l32.8-4.7v4.7h12.7V120.5H754v7.1l-3.7.5v-15ZM750.3,65.5H754v35h-3.7Zm-12.7,34.9h-3.7v-35h3.7Zm-36.4,9.7H679.5v12.7H684v22.4h12.7v-13l-.1-.4h.1v-9h4.5ZM666.1,57.9V88.5h48.5V57.9Zm35.7,17.9h-23V70.7h23Zm-38.7,69.4h12.7V105h29v22.7c0,4.2-5.7,4.7-7.4,4.8l2.8,12.7a20.81,20.81,0,0,0,8.5-2.2c5.8-2.9,8.7-8.1,8.7-15.3V92.2H662.9v53Zm-331-82.7c-4.1,27-18.3,53.1-19.8,55.9l10.6,9.4c2-3.4,17.5-30.3,22.8-62.5C340.6,64.2,339.3,64,332.1,62.5Zm-52.1,66,.8-.4c13.9-7.1,20.7-13.7,21.7-14.7l-2.9-13H221.2v12.7h9l-4.3,7a95.13,95.13,0,0,0,14.7,8.4l.9.4-1,.2a163.74,163.74,0,0,1-22.1,3.5l4.2,12.5a197.94,197.94,0,0,0,38.2-8.7h.2a226.93,226.93,0,0,0,40.1,8.7l4.2-12.5a154.59,154.59,0,0,1-24.5-3.9ZM261,123h-.1a149.27,149.27,0,0,1-21.1-9.2l-1.2-.6H281l-1,.6a98.7,98.7,0,0,1-19,9.2Zm31.1-59.8H279.4v4.5h-32V63.2H234.7v4.5H221.3V80.4h13.4V96.8h57.4V80.4h13.4V67.6H292.1ZM279.4,84h-32V80.3h32Zm26.1-37.2H266.6l-.1-.2a64.27,64.27,0,0,0-4.9-7.9l-11.8,5c.6.8,1.2,1.7,1.8,2.6l.3.5H203.4v61.5a139.73,139.73,0,0,1-3.7,31.1c7,3.3,10.9,5.2,12,5.7.7-2.4,4.4-16.3,4.4-36.8V59.5h89.4V46.8Zm55.1,76.4c0,7.7-7.7,7.8-7.8,7.8H341.3l2.8,14.2h8.7a26.37,26.37,0,0,0,11-2.8c7.3-3.6,11-10.1,11-19.2V41.6H360.6Zm91.6-64.6L436.8,43.2l-9,9,15.4,15.4Zm-61,7.7-2.3.9c7.5,35.1,21.1,57.9,22.8,60.7l12.1-7.2c-1.7-2.6-13.9-21.5-22.1-58.9C396.3,64.2,395,64.7,391.2,66.3Zm36.7,75.5c2.2.6,3.6,1,5.1,1.3,1.8.5,3.7.9,7.2,1.9,7.4-16.5,11.8-38.5,12.3-41.4l-12.3-3.3A209.14,209.14,0,0,1,427.9,141.8Z"/><path class="cls-1" d="M9.2,46.3v91.6a7.7,7.7,0,0,0,7.7,7.7H62.7a7.7,7.7,0,0,0,7.7-7.7V73.7a9.28,9.28,0,0,0-4.6-8l-45-26A7.71,7.71,0,0,0,9.2,46.3Z"/><path class="cls-1" d="M75,73.7v64.2a7.7,7.7,0,0,0,7.7,7.7h85.1a7.7,7.7,0,0,0,7.7-7.7V23.7A7.62,7.62,0,0,0,164,17.1L79.6,65.7A9.08,9.08,0,0,0,75,73.7Z"/><rect class="cls-1" x="805.3" y="59.1" width="11.5" height="73"/><path class="cls-1" d="M924.52,139.06l-9-22.53H873.6l-9.46,22.53H847.91l39.21-93.72H902l39.2,93.72ZM879,103H910.1L897.48,70.12c-1.51-3.9-2.25-6.91-2.25-9h-.45a30.54,30.54,0,0,1-2.71,9Z"/><path class="cls-1" d="M992.11,73.27,985.8,86.34a13.88,13.88,0,0,0-9.46-3.15q-12.18-.45-11.72,18.92v37H949.75V70.12h14.87V80q3.6-10.35,13.52-11.26Q987.14,68.77,992.11,73.27Z"/><path class="cls-1" d="M1048,116.08l15.32,4.06q-6.32,21.17-32,20.72-32.89-1.35-34.25-35.14,1.35-35.14,33.8-36.95,32,.9,32.89,37.4v4h-50.92q2.25,17.58,18,18.48Q1044.83,129.15,1048,116.08Zm-17.12-33.79q-14.88,1.35-17.12,15.32h33.79Q1045.73,82.73,1030.86,82.29Z"/><path class="cls-1" d="M1129.54,87.69l-14.87,3.61q-2.26-9.92-12.62-9.46-11.27,0-11.71,7.21-.91,6.32,15.77,9,27,4.05,26.58,21.63-.9,20.26-29.74,20.72-24.33,0-30.19-20.27l14.42-4.06q2.71,13.08,15.77,12.62,14.43,0,14.42-8.56.9-6.76-14.42-9-29.29-4.5-27.93-22.08,1.35-19.38,26.58-20.28Q1125.48,69.22,1129.54,87.69Z"/><path class="cls-1" d="M1192,99.41a78.1,78.1,0,0,0,.9,16.67,97,97,0,0,0-8.11,8.11q-5.41,5.87-8.56,9l-7.21-9.91q2.25-2.7,2.7-9V85.89H1165v-14h20.28v34.7Q1187.48,103.92,1192,99.41ZM1167.65,48l11.72-6.76q3.6,4.52,9.91,14,2.25,3.16,3.16,4.51a53.4,53.4,0,0,1-5,2.7q-5,3.16-7.66,5A111.52,111.52,0,0,0,1167.65,48Zm85.17,78V57.05h-44.16V95.8q0,32-9.46,49.57c-1.21-.61-3-1.65-5.41-3.15q-6.32-4.07-9.46-5.86,10.82-13.52,10.81-39.2V44h71.2v86.06q0,13.06-12.62,14h-5c-4.21.29-7.51.45-9.91.45q-.45-1.8-1.35-5.86a67.38,67.38,0,0,0-2.26-7.66q7.66.45,12.17.45Q1252.82,131.4,1252.82,126Zm-41.91-34.25V81.84H1224V75.53h-11.27V65.16H1224v-6.3h13.07v6.3h11.71V75.53h-11.71v6.31h13.52v9.91Zm14,40.1h-12.17V97.16h35.15V126.9h-23Zm11.27-15.32v-9h-11.27v9Z"/><path class="cls-1" d="M1301.48,61.56v27q0,40.54-10.81,56.77l-6.76-5.41a52.49,52.49,0,0,0-5-4.5q9-16.23,8.56-48.67V49.39h42.81c-.9-2.09-2-4.65-3.15-7.66l17.57-2.25a77.72,77.72,0,0,1,4.06,9.91h36.94V61.56Zm3.61,40.55h70.74v11.72a157.31,157.31,0,0,1-17.12,15.77q11.71,1.8,27.94,2.7-2.72,5.41-6.31,12.17-23.44-2.7-37.85-8.11-15.33,5.4-38.3,9a56.85,56.85,0,0,0-6.76-11.71q21.16-.9,30.64-3.61a103.16,103.16,0,0,1-16.22-16.22h-6.76Zm-1.35-22.53V67.87h11.71V63.36H1329v4.51h26.58V63.36h14v4.51h14.42V79.58h-14.42V97.16h-54.07V79.58Zm39.2,45.06a49.26,49.26,0,0,0,16.67-10.81h-32.44A52.36,52.36,0,0,0,1342.94,124.64Zm-14-38.3h26.58V79.58H1329Z"/><path class="cls-1" d="M1397,112v-14h43.71V58.41h-39.2v-14h95.07v14h-39.65V98.06h44.16v14h-44.16v32.44h-16.22V112Zm6.31-43.71,11.26-7.66Q1420,67,1432.16,82.29c1.5,2.1,2.7,3.76,3.6,4.95l-13.07,8.56Q1411.88,79.13,1403.32,68.32ZM1484,60.66l12.61,8.56q-11.71,13.52-23.88,27l-11.26-9A261,261,0,0,0,1484,60.66Z"/><path class="cls-1" d="M1577.25,60.66,1588.51,53q16.23,15.78,30.19,31.54L1607,94.45a36.4,36.4,0,0,1-2.7-3.15q-1.36-1.8-5.86-6.76-46,.45-79.76,4.06L1512.81,76Q1534,62.47,1554.72,39l14,7.21q-15.33,14-32,28.39,16.66-.9,51.36-1.81Q1582.66,66.52,1577.25,60.66Zm-39.65,84.26h-14.87V95.35h82.91v49.57h-14.87v-6.31H1537.6ZM1590.77,126V108.87H1537.6V126Z"/></svg>