<?xml version="1.0" encoding="utf-8"?>
<!-- Generator: Adobe Illustrator 23.0.1, SVG Export Plug-In . SVG Version: 6.00 Build 0)  -->
<svg version="1.1" id="图层_1" xmlns="http://www.w3.org/2000/svg" xmlns:xlink="http://www.w3.org/1999/xlink" x="0px" y="0px"
	 viewBox="0 0 1553.5 159.9" style="enable-background:new 0 0 1553.5 159.9;" xml:space="preserve">
<style type="text/css">
	.st0{fill:#FFFFFF;}
</style>
<g>
	<g>
		<path class="st0" d="M545.5,70.6l6.4,11l15-8.8l33.3-19.5l0.2,0.1l48.2,28.2l6.4-11l-54.7-32L545.5,70.6z M457.5,82.6h20.1v5.9
			h-20.1v56.7h12.7v-20.6l7,7c1-1,5-5.3,8.3-11.9l0.2-0.4l4,4l9-9l-8.8-8.8v-0.2c0.2-1.2,0.3-2.5,0.3-3.8v-0.3h12.6v3.3
			c0,13.4-7.8,21.1-9.4,22.6l9,9c1.1-1.2,6.3-6.6,9.7-15l0.2-0.5l4.1,4.1l6.4-6.4v4.8c0,9.2-9.2,9.3-9.3,9.3H508l2.8,12.7h2.7
			c0.1,0,5.6,0,11-2.8c7.3-3.6,11-10.1,11-19.2V88.5h-20.1v-5.9h20.1V69.9h-78.3v12.7H457.5z M477.5,101.6
			c-0.4,8.6-3.9,14.7-6.7,18.3l-0.6,0.8v-19.5h7.4L477.5,101.6z M515.6,105.7c0-0.4,0-0.8,0-1.1v-3.3h7.4v12l-7.4-7.4V105.7z
			 M490.3,82.6h12.6v5.9h-12.6V82.6z M624.9,131.8c7.9-5.4,12.9-11.9,13.8-13.2l-7-6.9h15.7V98.9h-41V85.6h26.1V72.8h-64.8v12.7
			h26.1v13.3h-41v12.7h15.9l-7.6,7.6l13.2,13.2h-26V145h103.6v-12.7h-28L624.9,131.8z M593.8,132.4h-15l6.8-6.8l-14-14h22.3
			L593.8,132.4L593.8,132.4z M606.5,132.4v-20.8h21.7l-0.5,0.6c-5.6,6.2-12.4,10.6-13.9,11.6l6.8,8.7L606.5,132.4L606.5,132.4z
			 M520.1,41.6h-12.7v6h-21.5v-6h-12.7v6h-15.6v12.7h15.6v6h12.7v-6h21.5v6h12.7v-6h15.6V47.5h-15.6V41.6z M452.2,86.1l-15.4-15.4
			l-9,9l15.4,15.4L452.2,86.1z M663.1,54.3h54.5V41.6h-54.5V54.3z M766.7,113.1V52.7h-16.4V41.6h-12.7v11.2h-16.4v60.4h16.4V130
			l-16.4,2.3v12.9l32.8-4.7v4.7h12.7v-24.7H754v7.1l-3.7,0.5v-15L766.7,113.1z M750.3,65.5h3.7v35h-3.7V65.5z M737.6,100.4h-3.7v-35
			h3.7V100.4z M701.2,110.1h-21.7v12.7h4.5v22.4h12.7v-13l-0.1-0.4h0.1v-9h4.5V110.1z M666.1,57.9v30.6h48.5V57.9H666.1z
			 M701.8,75.8h-23v-5.1h23V75.8z M663.1,145.2h12.7V105h29v22.7c0,4.2-5.7,4.7-7.4,4.8l2.8,12.7c1,0,4.8-0.3,8.5-2.2
			c5.8-2.9,8.7-8.1,8.7-15.3V92.2h-54.5v53H663.1z M332.1,62.5c-4.1,27-18.3,53.1-19.8,55.9l10.6,9.4c2-3.4,17.5-30.3,22.8-62.5
			C340.6,64.2,339.3,64,332.1,62.5z M280,128.5l0.8-0.4c13.9-7.1,20.7-13.7,21.7-14.7l-2.9-13h-78.4v12.7h9l-4.3,7
			c1.1,0.8,5.9,4.2,14.7,8.4l0.9,0.4l-1,0.2c-11.3,2.6-20.1,3.3-22.1,3.5l4.2,12.5c13.7-1.8,26.5-4.7,38.2-8.7h0.1h0.1
			c12.3,3.9,25.8,6.9,40.1,8.7l4.2-12.5c-2.1-0.1-11.7-0.9-24.5-3.9L280,128.5z M261,123h-0.1c-7.5-2.6-14.5-5.7-21.1-9.2l-1.2-0.6
			H281l-1,0.6C274.5,117.3,268.1,120.4,261,123L261,123z M292.1,63.2h-12.7v4.5h-32v-4.5h-12.7v4.5h-13.4v12.7h13.4v16.4h57.4V80.4
			h13.4V67.6h-13.4V63.2z M279.4,84h-32v-3.7h32V84z M305.5,46.8h-38.9l-0.1-0.2c-1.8-3.5-3.7-6.2-4.9-7.9c-5.2,2.2-10.4,4.4-11.8,5
			c0.6,0.8,1.2,1.7,1.8,2.6l0.3,0.5h-48.5v61.5c0,13.5-2.3,25.1-3.7,31.1c7,3.3,10.9,5.2,12,5.7c0.7-2.4,4.4-16.3,4.4-36.8V59.5
			h89.4V46.8L305.5,46.8z M360.6,123.2c0,7.7-7.7,7.8-7.8,7.8h-11.5l2.8,14.2h8.7c0.1,0,5.6,0,11-2.8c7.3-3.6,11-10.1,11-19.2V41.6
			h-14.2V123.2z M452.2,58.6l-15.4-15.4l-9,9l15.4,15.4L452.2,58.6z M391.2,66.3l-2.3,0.9c7.5,35.1,21.1,57.9,22.8,60.7l12.1-7.2
			c-1.7-2.6-13.9-21.5-22.1-58.9C396.3,64.2,395,64.7,391.2,66.3z M427.9,141.8c2.2,0.6,3.6,1,5.1,1.3c1.8,0.5,3.7,0.9,7.2,1.9
			c7.4-16.5,11.8-38.5,12.3-41.4l-12.3-3.3C439.7,103.4,435.9,123,427.9,141.8z"/>
	</g>
</g>
<path class="st0" d="M9.2,46.3v91.6c0,4.2,3.4,7.7,7.7,7.7h45.8c4.2,0,7.7-3.4,7.7-7.7V73.7c0-3.3-1.8-6.4-4.6-8l-45-26
	C15.5,36.8,9.2,40.4,9.2,46.3z"/>
<path class="st0" d="M75,73.7v64.2c0,4.2,3.4,7.7,7.7,7.7h85.1c4.2,0,7.7-3.4,7.7-7.7V23.7c0-5.9-6.3-9.6-11.5-6.6L79.6,65.7
	C76.7,67.3,75,70.4,75,73.7z"/>
<path class="st0" d="M907.8,67.6h14.8c-0.3,14.7-1.2,26.5-2.7,35.5h37.3v13h-40.9c0,0.6-0.3,1.2-0.9,1.8
	c13.8,4.5,27.4,9.3,40.9,14.4l-5.4,12.6c-14.4-6-28.8-11.4-43.2-16.2c-10.2,8.4-24.4,14.1-42.7,17.1c-4.2-6.9-7.2-11.2-9-13
	c22.8-3.6,37.3-9.1,43.6-16.6h-46.3v-13H887c-7.8-4.5-14.7-8.4-20.7-11.7l6.3-10.3c6.9,3.3,14.4,7.2,22.5,11.7l-6.3,10.3h15.7
	C906.4,93.9,907.5,82,907.8,67.6z"/>
<path class="st0" d="M870.4,78.4h-14.8V50.6h42.7c-0.3-0.9-0.2-1.4-0.8-2.3l15.6-8.5c0.3,1.5,1,3.8,2.2,6.7c0.6,1.8,1,3.1,1.3,4
	h37.8v27.9h-14.8V63.6h-69.2V78.4z"/>
<path class="st0" d="M874.9,77.1l6.3-10.3c7.8,3,15.4,6.6,22.9,10.8l-6.3,11.2C889.5,83.7,881.8,79.8,874.9,77.1z"/>
<path class="st0" d="M983.5,139.1h-13.9V47.9h42.3v90.8h-14.4V132h-13.9L983.5,139.1L983.5,139.1z M997.4,82.9V61.8h-13.9v21.1
	H997.4z M983.5,96.9V118h13.9V96.9H983.5z M1013.1,86.5l13.1-5c1.2,1.8,1.7,2.4,5.3,7.2c5.1,6.6,9.1,12,12.1,16.2l-13,8.5
	c-0.9-1.2-2-3-3.1-5.4C1020.9,97.6,1016.1,90.4,1013.1,86.5z M1014.9,73V59.1h31.5v-18h15.3v18h9V73h-9v53.1
	c0,11.7-5.4,17.5-16.2,17.5c-5.7,0.3-12.3,0.5-19.8,0.5c0-0.6-0.2-1.3-0.5-2.2c-0.9-5.1-2-9.3-3.1-12.6c1.5,0,3.9,0,7.2,0
	c4.2,0.3,7.3,0.4,9.4,0.4c5.1,0,7.6-2.7,7.6-8.1V73H1014.9z"/>
<path class="st0" d="M1118.1,108.6c0.3,6.9,0.7,10.9,0.1,16.9c-13.8,8.7-20.8,13.8-24.4,17.7l-8.1-9.9c1.8-1.8,2.7-4.8,2.7-9V90.1
	h-10.8V76.2h25.2v42.3c1.2-0.6,3.7-2.2,7.6-4.9C1113.7,111.4,1116.3,109.8,1118.1,108.6z M1083.5,47.4l12.6-7.2
	c1.2,1.5,2.7,3.6,4.5,6.3c2.4,3.3,5.5,7.8,9.4,13.5l-13.9,8.5C1092.7,62.2,1088.5,55.2,1083.5,47.4z M1112.7,87.4V73h27.4V40.2h15.7
	V73h27.4v14.4h-27.4V145h-15.7V87.4H1112.7z"/>
<path class="st0" d="M1189.7,130.1v-10.3h25.2c0.3-0.6,0.5-1.5,0.5-2.7c0.3-1.2,0.4-2.1,0.4-2.7h-15.7V68.5
	c-1.8,0.9-3.3,2.1-4.5,3.6c-1.5-3.9-3.6-8.2-6.3-13c7.2-4.5,13.2-10.8,18-18.9h14.8c-0.6,1.2-1.7,3.1-3.1,5.8
	c-0.3,0.6-0.6,1.1-0.9,1.3h23.4v9.4c5.1-4.8,9-10.3,11.7-16.6h13.9c-0.3,0.6-0.8,1.8-1.3,3.6c-0.6,1.5-1.1,2.7-1.3,3.6h30.1v9.9
	h-15.3c1.2,1.8,2.2,3.9,3.1,6.3l-13.5,2.7h17.1v48.1h-14v5.4h23.8V130H1272v14.4h-13.9V130h-31c-3,6.6-8.1,11.8-15.3,15.7
	c-4.5-3-9.1-5.8-13.9-8.5c5.4-2.1,9.4-4.5,12.1-7.2h-20.3L1189.7,130.1L1189.7,130.1z M1202.3,66.3h15.7c-0.3-1.2-0.9-3.3-1.8-6.3
	c-0.6-1.2-1.1-2.1-1.3-2.7h-4C1208.2,60.6,1205.3,63.6,1202.3,66.3z M1272,80.2v-5.4h-58v5.4H1272z M1214,87.4v5.4h58v-5.4H1214z
	 M1214,105.4h58v-4.9h-58V105.4z M1232,63.6l-13,2.7h29.2c-1.2-0.9-3-1.9-5.4-3.1c-2.7-1.5-4.7-2.5-5.8-3.1c0.6-0.3,1.2-0.7,1.8-1.3
	c0.9-0.6,1.5-1,1.8-1.3h-11.2C1230.2,59.1,1231.1,61.2,1232,63.6z M1229.3,119.8h28.8v-5.4h-28.3c0,0.6,0,1.5,0,2.7
	C1229.5,118.3,1229.3,119.2,1229.3,119.8z M1251.3,66.3h17.1c-0.9-3.3-2.1-6.3-3.6-9h-5.8c-0.6,0.6-1.5,1.7-2.7,3.1
	C1255.7,61.6,1254,63.6,1251.3,66.3z"/>
<path class="st0" d="M1303.7,112.2v-14h43.6V58.6h-39.1V44.7h94.9v13.9h-39.6v39.6h44.1v13.9h-44.1v32.4h-16.2v-32.4L1303.7,112.2
	L1303.7,112.2z M1310,68.5l9.9-6.7c3.6,4.2,10.8,10.5,18.9,20.6c1.5,2.1,2.7,3.8,3.6,4.9l-13,8.5C1322.1,84.9,1315.7,75.7,1310,68.5
	z M1391.8,61.8l11.2,7.6c-7.8,9-15.7,18-23.8,27l-11.2-9C1376.4,78.7,1385.2,70.8,1391.8,61.8z"/>
<path class="st0" d="M1481,60.9l11.2-7.6c10.8,10.5,20.8,21,30.1,31.5l-11.7,9.9c-0.6-0.6-1.5-1.6-2.7-3.1c-0.9-1.2-2.9-3.4-5.8-6.7
	c-30.6,0.3-57.1,1.7-79.6,4l-5.8-12.6c14.1-9,28-21.3,41.8-36.9l13.9,7.2c-10.2,9.3-20.8,18.7-31.9,28.3c11.1-0.6,28.2-1.2,51.3-1.8
	C1488.2,68.8,1484.6,64.8,1481,60.9z M1441.4,145h-14.8V95.5h82.7V145h-14.8v-6.3h-53.1L1441.4,145L1441.4,145z M1494.5,126.1V109
	h-53.1v17.1H1494.5z"/>
<g>
	<rect x="805.3" y="59.1" class="st0" width="11.5" height="73"/>
</g>
</svg>
